<svg width="705" height="343" viewBox="0 0 705 343" fill="none" xmlns="http://www.w3.org/2000/svg">
<path d="M75.1242 215.011C58.921 215.011 46.4003 210.868 37.5621 202.582C28.724 194.112 24.3049 181.683 24.3049 165.296V33H58.8289V164.467C58.8289 171.464 60.5781 176.896 64.0766 180.763C67.7591 184.629 72.8226 186.563 79.2671 186.563C87.0005 186.563 93.445 184.537 98.6006 180.487L108.267 205.068C104.216 208.382 99.245 210.868 93.3529 212.525C87.4608 214.182 81.3846 215.011 75.1242 215.011ZM0 94.3146V66.6954H98.3244V94.3146H0Z" fill="#B90707"/>
<path d="M219.249 213.077V183.248L217.316 176.896V124.696C217.316 114.569 214.278 106.743 208.201 101.219C202.125 95.5115 192.919 92.6575 180.582 92.6575C172.296 92.6575 164.103 93.9464 156.001 96.5242C148.084 99.102 141.363 102.692 135.839 107.296L122.306 82.1622C130.223 76.086 139.614 71.5748 150.477 68.6288C161.525 65.4986 172.941 63.9335 184.725 63.9335C206.084 63.9335 222.563 69.0891 234.163 79.4003C245.948 89.5273 251.84 105.27 251.84 126.629V213.077H219.249ZM172.849 215.011C161.801 215.011 152.134 213.169 143.849 209.487C135.563 205.62 129.118 200.372 124.515 193.744C120.096 186.931 117.887 179.29 117.887 170.82C117.887 162.534 119.82 155.077 123.687 148.448C127.737 141.82 134.274 136.572 143.296 132.705C152.318 128.839 164.287 126.905 179.201 126.905H222.011V149.829H181.687C169.903 149.829 161.985 151.763 157.934 155.629C153.884 159.312 151.858 163.915 151.858 169.439C151.858 175.699 154.344 180.671 159.315 184.353C164.287 188.036 171.192 189.877 180.03 189.877C188.5 189.877 196.049 187.944 202.677 184.077C209.49 180.21 214.37 174.502 217.316 166.953L223.116 187.668C219.801 196.322 213.817 203.042 205.163 207.83C196.693 212.617 185.922 215.011 172.849 215.011Z" fill="#B90707"/>
<path d="M355.798 215.011C340.331 215.011 326.522 211.788 314.369 205.344C302.401 198.715 293.01 189.693 286.198 178.277C279.385 166.861 275.978 153.88 275.978 139.334C275.978 124.604 279.385 111.623 286.198 100.391C293.01 88.9749 302.401 80.0447 314.369 73.6002C326.522 67.1558 340.331 63.9335 355.798 63.9335C370.16 63.9335 382.773 66.8796 393.636 72.7717C404.684 78.4796 413.062 86.9495 418.77 98.1813L392.255 113.648C387.836 106.651 382.404 101.496 375.96 98.1813C369.7 94.867 362.887 93.2099 355.522 93.2099C347.052 93.2099 339.411 95.0511 332.598 98.7337C325.785 102.416 320.445 107.756 316.579 114.753C312.712 121.566 310.779 129.759 310.779 139.334C310.779 148.909 312.712 157.194 316.579 164.191C320.445 171.004 325.785 176.252 332.598 179.934C339.411 183.617 347.052 185.458 355.522 185.458C362.887 185.458 369.7 183.801 375.96 180.487C382.404 177.172 387.836 172.017 392.255 165.02L418.77 180.487C413.062 191.534 404.684 200.096 393.636 206.172C382.773 212.065 370.16 215.011 355.798 215.011Z" fill="#B90707"/>
<path d="M510.53 213.077V65.5907H543.397V106.191L539.53 94.3146C543.949 84.3717 550.854 76.8225 560.245 71.6669C569.819 66.5113 581.696 63.9335 595.874 63.9335V96.8004C594.401 96.4321 593.02 96.248 591.731 96.248C590.442 96.0638 589.153 95.9718 587.864 95.9718C574.791 95.9718 564.388 99.8385 556.654 107.572C548.921 115.121 545.054 126.445 545.054 141.543V213.077H510.53Z" fill="#B90707"/>
<path fill-rule="evenodd" clip-rule="evenodd" d="M438.979 65.5907V213.077H473.503V65.5907H438.979Z" fill="#B90707"/>
<path d="M456.379 41.4288C449.935 41.4288 444.595 39.4034 440.36 35.3526C436.309 31.3018 434.284 26.4224 434.284 20.7144C434.284 14.8223 436.309 9.94291 440.36 6.07621C444.595 2.0254 449.935 0 456.379 0C462.824 0 468.071 1.93334 472.122 5.80002C476.357 9.48259 478.475 14.1779 478.475 19.8858C478.475 25.962 476.449 31.1176 472.398 35.3526C468.348 39.4034 463.008 41.4288 456.379 41.4288Z" fill="#F09713"/>
<path d="M461.161 302.628C457.153 302.628 453.295 302.12 449.587 301.103C445.938 300.026 443.037 298.74 440.884 297.245L445.191 288.721C447.344 290.097 449.916 291.234 452.907 292.131C455.897 293.028 458.888 293.477 461.879 293.477C465.408 293.477 467.95 292.998 469.505 292.041C471.12 291.084 471.927 289.798 471.927 288.183C471.927 286.867 471.389 285.88 470.312 285.222C469.236 284.505 467.83 283.966 466.095 283.607C464.361 283.248 462.417 282.92 460.264 282.62C458.17 282.321 456.047 281.933 453.894 281.454C451.8 280.916 449.886 280.168 448.151 279.211C446.417 278.194 445.011 276.848 443.935 275.174C442.858 273.499 442.32 271.286 442.32 268.534C442.32 265.484 443.187 262.852 444.922 260.639C446.656 258.366 449.079 256.632 452.189 255.435C455.359 254.179 459.097 253.551 463.404 253.551C466.634 253.551 469.894 253.91 473.183 254.628C476.473 255.346 479.195 256.362 481.348 257.678L477.041 266.202C474.768 264.826 472.466 263.899 470.133 263.42C467.86 262.882 465.587 262.613 463.314 262.613C459.905 262.613 457.363 263.121 455.688 264.138C454.073 265.155 453.266 266.441 453.266 267.996C453.266 269.432 453.804 270.508 454.88 271.226C455.957 271.944 457.363 272.512 459.097 272.931C460.832 273.349 462.746 273.708 464.839 274.007C466.993 274.247 469.116 274.635 471.21 275.174C473.303 275.712 475.217 276.46 476.952 277.417C478.746 278.314 480.182 279.6 481.258 281.275C482.335 282.949 482.873 285.133 482.873 287.824C482.873 290.815 481.976 293.417 480.182 295.63C478.447 297.843 475.965 299.578 472.735 300.834C469.505 302.03 465.647 302.628 461.161 302.628ZM508.771 302.628C503.507 302.628 499.44 301.282 496.569 298.591C493.698 295.839 492.262 291.802 492.262 286.478V243.502H503.477V286.209C503.477 288.482 504.045 290.247 505.182 291.503C506.378 292.759 508.023 293.387 510.117 293.387C512.629 293.387 514.722 292.729 516.397 291.413L519.537 299.398C518.221 300.475 516.606 301.282 514.692 301.821C512.778 302.359 510.804 302.628 508.771 302.628ZM484.367 263.42V254.448H516.307V263.42H484.367ZM546.924 302.628C542.02 302.628 537.653 301.581 533.825 299.488C529.997 297.335 526.976 294.404 524.763 290.695C522.55 286.987 521.444 282.77 521.444 278.045C521.444 273.26 522.55 269.043 524.763 265.394C526.976 261.686 529.997 258.785 533.825 256.691C537.653 254.598 542.02 253.551 546.924 253.551C551.889 253.551 556.285 254.598 560.113 256.691C564.001 258.785 567.022 261.656 569.175 265.304C571.388 268.953 572.494 273.2 572.494 278.045C572.494 282.77 571.388 286.987 569.175 290.695C567.022 294.404 564.001 297.335 560.113 299.488C556.285 301.581 551.889 302.628 546.924 302.628ZM546.924 293.028C549.676 293.028 552.128 292.43 554.281 291.234C556.435 290.037 558.109 288.303 559.306 286.03C560.562 283.757 561.19 281.095 561.19 278.045C561.19 274.934 560.562 272.273 559.306 270.06C558.109 267.787 556.435 266.052 554.281 264.856C552.128 263.66 549.706 263.061 547.014 263.061C544.263 263.061 541.81 263.66 539.657 264.856C537.563 266.052 535.889 267.787 534.633 270.06C533.376 272.273 532.748 274.934 532.748 278.045C532.748 281.095 533.376 283.757 534.633 286.03C535.889 288.303 537.563 290.037 539.657 291.234C541.81 292.43 544.233 293.028 546.924 293.028ZM581.424 302V254.089H592.101V267.278L590.845 263.42C592.281 260.19 594.524 257.738 597.574 256.063C600.684 254.389 604.542 253.551 609.148 253.551V264.228C608.669 264.108 608.221 264.048 607.802 264.048C607.383 263.989 606.965 263.959 606.546 263.959C602.299 263.959 598.92 265.215 596.408 267.727C593.896 270.179 592.639 273.858 592.639 278.762V302H581.424ZM638.949 302.628C633.626 302.628 628.96 301.581 624.953 299.488C621.005 297.335 617.925 294.404 615.712 290.695C613.558 286.987 612.482 282.77 612.482 278.045C612.482 273.26 613.528 269.043 615.622 265.394C617.775 261.686 620.706 258.785 624.414 256.691C628.183 254.598 632.459 253.551 637.244 253.551C641.91 253.551 646.067 254.568 649.715 256.602C653.364 258.635 656.235 261.506 658.329 265.215C660.422 268.923 661.469 273.29 661.469 278.314C661.469 278.792 661.439 279.331 661.379 279.929C661.379 280.527 661.349 281.095 661.289 281.634H621.364V274.187H655.368L650.972 276.519C651.031 273.768 650.463 271.346 649.267 269.252C648.071 267.159 646.426 265.514 644.332 264.318C642.299 263.121 639.936 262.523 637.244 262.523C634.493 262.523 632.07 263.121 629.977 264.318C627.943 265.514 626.328 267.189 625.132 269.342C623.996 271.435 623.427 273.918 623.427 276.789V278.583C623.427 281.454 624.085 283.996 625.401 286.209C626.717 288.422 628.571 290.127 630.964 291.323C633.356 292.52 636.108 293.118 639.218 293.118C641.91 293.118 644.332 292.699 646.486 291.862C648.639 291.024 650.553 289.708 652.228 287.914L658.239 294.822C656.086 297.335 653.364 299.278 650.074 300.654C646.844 301.97 643.136 302.628 638.949 302.628Z" fill="#B90707"/>
</svg>
